<svg id="logosandtypes_com" xmlns="http://www.w3.org/2000/svg" viewBox="0 0 150 150"><path d="M0 0h150v150H0V0z" fill="none"/><path d="M75.2 136.1c-33.9.1-61.7-27.7-61.7-61.7s27.7-61.8 61.7-61.8c34.6 0 61.6 27.7 61.8 61.7.2 34.1-27.5 61.7-61.8 61.8zm27.2-53h4.3c4.9-.2 8.6-4.3 8.5-9.1-.2-4-3-7.4-7-8.3-2.9-.6-5.8-.2-8.7-.3-12.4-.2-21.7-5.8-28.4-16-1.4-2.2-2.8-4.5-4.1-6.9-1.6-2.8-4.2-4.1-7.3-4.2-6.6-.2-10.8 6.7-7.9 13 .8 1.7 1.8 3.3 2.7 4.9 6.9 11.8 7.3 23.6.5 35.5-1.1 2-2.3 3.9-3.3 5.9-2.1 4.2-.6 9.3 3.5 11.6 4 2.2 9.2.9 11.8-3 .8-1.3 1.6-2.6 2.3-3.9 3.1-5.6 7-10.5 12.5-13.9 6.5-4 13.6-5.5 20.6-5.3z" fill="#f89f38"/></svg>